<svg xmlns="http://www.w3.org/2000/svg" version="1.1" xmlns:xlink="http://www.w3.org/1999/xlink" width="1500" height="1500" viewBox="0 0 1500 1500"><rect width="1500" height="1500" x="0" y="0" id="background" stroke="transparent" fill="#404040"></rect><svg xml:space="preserve" width="1000" height="1000" data-version="2" data-id="lg_byCuNfTf51VTKooI2H" viewBox="0 0 559 377" x="250" y="250"><rect width="100%" height="100%" fill="transparent"></rect><path fill="#ffffff" d="M19.68 275.106H6.31q-.58 0-.58-.58l.23-81.76q0-.46.47-.46h22.89q10.93 0 17.29 6.65 6.36 6.66 6.36 18.1 0 8.37-3.31 14.59-3.37 6.16-8.72 9.53-5.34 3.37-11.62 3.37h-9.06v29.98q0 .58-.58.58m9.64-68.68-9.06.12v23.59h9.06q3.78 0 6.57-3.64 2.79-3.63 2.79-9.44 0-4.65-2.5-7.64-2.5-2.99-6.86-2.99"></path><rect width="47.24" height="82.8" x="-23.62" y="-41.4" fill="none" rx="0" ry="0" transform="translate(29.85 234.2)"></rect><path fill="#ffffff" d="m82.95 274.986-21.32.12q-.58 0-.58-.58l.23-81.76q0-.46.47-.46l22.25-.12q6.62-.17 11.97 3.02 5.4 3.2 8.63 8.63 3.22 5.44 3.22 12v34.17q0 6.85-3.31 12.55-3.37 5.64-8.95 8.98-5.58 3.34-12.61 3.45m1.05-68.56-8.31.12-.12 53.92h7.38q4.42 0 7.44-3.08 3.02-3.08 3.02-7.38v-34.28q0-3.78-2.79-6.6t-6.62-2.7"></path><rect width="46.77" height="82.98" x="-23.39" y="-41.49" fill="none" rx="0" ry="0" transform="translate(84.94 234.12)"></rect><path fill="#ffffff" d="M131.12 275.106h-13.36q-.58 0-.58-.58l.23-81.76q0-.46.47-.46h38.11q.58 0 .58.46v13.43q0 .46-.46.46H131.7v18.48h24.41q.46 0 .46.58l.12 13.48q0 .47-.58.47H131.7v34.86q0 .58-.58.58"></path><rect width="39.51" height="82.8" x="-19.75" y="-41.4" fill="none" rx="0" ry="0" transform="translate(137.44 234.2)"></rect><path fill="#ffffff" d="M181.33 275.106h-13.48q-.59 0-.59-.58l.12-81.76q0-.46.47-.46h13.36q.46 0 .46.46l.12 81.76q0 .58-.46.58"></path><rect width="14.53" height="82.8" x="-7.26" y="-41.4" fill="none" rx="0" ry="0" transform="translate(175.03 234.2)"></rect><path fill="#ffffff" d="M205.21 275.106H193.3q-.93 0-.93-.81l-.12-81.06q0-.93.93-.93h10.75l20.1 46.89-.58-45.96q0-.93 1.05-.93h11.79q.7 0 .7.93l.12 81.17q0 .7-.58.7h-10.46l-20.63-43.81.87 42.88q0 .93-1.1.93"></path><rect width="44.86" height="82.8" x="-22.43" y="-41.4" fill="none" rx="0" ry="0" transform="translate(215.18 234.2)"></rect><path fill="#ffffff" d="M275.22 275.106h-14.41q-.52 0-.58-.58l-16.44-81.76q-.12-.46.46-.46h13.48q.47 0 .59.46l9.76 54.51 9.53-54.51q.11-.46.58-.46h13.3q.64 0 .47.46l-16.15 81.76q-.06.58-.59.58"></path><rect width="48.33" height="82.8" x="-24.16" y="-41.4" fill="none" rx="0" ry="0" transform="translate(268.4 234.2)"></rect><path fill="#ffffff" d="M337.86 275.106H299.4q-.47 0-.47-.58l.12-81.76q0-.46.46-.46h38.24q.46 0 .46.58v13.31q0 .46-.46.46h-24.41v18.6h24.41q.46 0 .46.46l.12 13.48q0 .47-.47.47h-24.52v20.8h24.52q.47 0 .47.58v13.59q0 .47-.47.47"></path><rect width="39.4" height="82.8" x="-19.7" y="-41.4" fill="none" rx="0" ry="0" transform="translate(319.13 234.2)"></rect><path fill="#ffffff" d="M362.85 275.106h-13.48q-.47 0-.47-.58l.23-81.76q0-.46.47-.46h24.06q6.45 0 11.85 3.14 5.4 3.13 8.63 8.42 3.22 5.29 3.22 11.97 0 4.36-1.33 7.9-1.34 3.55-3.11 5.99-1.77 2.44-3.23 3.6 6.45 7.15 6.45 16.79l.12 24.41q0 .58-.58.58H382.2q-.47 0-.47-.35v-24.64q0-4.3-3.02-7.43-3.02-3.14-7.44-3.14h-7.84l-.12 34.98q0 .58-.46.58m10.81-68.56h-10.23v18.71h10.23q3.66 0 6.53-2.74 2.88-2.73 2.88-6.68 0-3.77-2.79-6.53-2.79-2.76-6.62-2.76"></path><rect width="48.46" height="82.8" x="-24.23" y="-41.4" fill="none" rx="0" ry="0" transform="translate(373.63 234.2)"></rect><path fill="#ffffff" d="M431.64 275.106h-13.42q-.52 0-.52-.58v-67.87h-15.46q-.58 0-.58-.58l.12-13.31q0-.46.46-.46h45.21q.64 0 .64.46v13.31q0 .58-.47.58h-15.63l.12 67.87q0 .58-.47.58"></path><rect width="46.43" height="82.8" x="-23.21" y="-41.4" fill="none" rx="0" ry="0" transform="translate(425.38 234.2)"></rect><path fill="#ffffff" d="M492.77 275.106h-38.46q-.47 0-.47-.58l.12-81.76q0-.46.46-.46h38.24q.46 0 .46.58v13.31q0 .46-.46.46h-24.41v18.6h24.41q.46 0 .46.46l.12 13.48q0 .47-.47.47h-24.52v20.8h24.52q.47 0 .47.58v13.59q0 .47-.47.47"></path><rect width="39.4" height="82.8" x="-19.7" y="-41.4" fill="none" rx="0" ry="0" transform="translate(474.04 234.2)"></rect><path fill="#ffffff" d="M517.76 275.106h-13.48q-.47 0-.47-.58l.23-81.76q0-.46.47-.46h24.05q6.45 0 11.86 3.14 5.4 3.13 8.63 8.42 3.22 5.29 3.22 11.97 0 4.36-1.33 7.9-1.34 3.55-3.11 5.99-1.78 2.44-3.23 3.6 6.45 7.15 6.45 16.79l.12 24.41q0 .58-.58.58h-13.48q-.47 0-.47-.35v-24.64q0-4.3-3.02-7.43-3.02-3.14-7.44-3.14h-7.84l-.12 34.98q0 .58-.46.58m10.8-68.56h-10.22v18.71h10.22q3.67 0 6.54-2.74 2.88-2.73 2.88-6.68 0-3.77-2.79-6.53-2.79-2.76-6.63-2.76"></path><rect width="48.46" height="82.8" x="-24.23" y="-41.4" fill="none" rx="0" ry="0" transform="translate(528.54 234.2)"></rect><path fill="#ffffff" d="M113.7 352.866h-9.96v-1.9h9.96zm-3.89 15.02h-2.18v-16.92h2.18z"></path><rect width="9.96" height="16.92" x="-4.98" y="-8.46" fill="none" rx="0" ry="0" transform="translate(109.22 359.93)"></rect><path fill="#ffffff" d="M117.8 367.886h-2.18v-12.12h2.18zm0-8.11h-.98q0-1.22.41-2.19.4-.98 1.11-1.53.71-.55 1.57-.55l-.19 2.04q-.84 0-1.38.64-.54.63-.54 1.59m4.11-3.5-.75 1.82q-.29-.24-.68-.39-.4-.16-.76-.16l.19-2.04q.56 0 1.08.2.53.21.92.57"></path><rect width="6.29" height="12.38" x="-3.15" y="-6.19" fill="none" rx="0" ry="0" transform="translate(119.27 362.2)"></rect><path fill="#ffffff" d="M132.37 367.886h-2.18v-8.25h2.18zm-5.11.36.17-1.8q.86 0 1.47-.43t.95-1.27q.34-.84.34-1.99l1.08-.05q0 1.63-.53 2.88t-1.43 1.96q-.9.7-2.05.7m.17-1.8-.17 1.8q-1.08 0-1.97-.5-.89-.5-1.42-1.38-.52-.88-.52-1.96l2.06-.07q0 .91.61 1.51t1.41.6m-2.02-2.11-2.06.07q0-1.12.56-1.98.56-.85 1.52-1.35.96-.51 2.19-.51l.12 1.68q-1.01 0-1.67.59-.66.59-.66 1.5m5.9-2.09h-3.57l-.12-1.68h3.69zm-.04.46-1.08.05v-3.1h1.08zm1.1-3.02h-2.18q0-1.06-.64-1.73-.64-.67-1.64-.67v-1.88q1.29 0 2.29.56.99.55 1.58 1.52.59.97.59 2.2m-6.72-.29-2.02-.41q.15-1.08.74-1.87.58-.79 1.51-1.25.92-.46 2.05-.46v1.88q-.89 0-1.52.51-.64.52-.76 1.6"></path><rect width="9.02" height="12.84" x="-4.51" y="-6.42" fill="none" rx="0" ry="0" transform="translate(128.36 362.33)"></rect><path fill="#ffffff" d="M137.07 367.886h-2.18v-12.12h2.18zm6.75 0h-2.19v-8.25h2.19zm0-8.25h-2.19q0-1.01-.62-1.65-.62-.63-1.61-.63l.55-1.95q1.11 0 1.98.56.88.55 1.38 1.51.51.96.51 2.16m-6.75.05h-.96q0-1.23.51-2.2.5-.97 1.37-1.52.86-.56 1.96-.56l-.55 1.95q-1.03 0-1.68.65-.65.64-.65 1.68"></path><rect width="8.93" height="12.48" x="-4.46" y="-6.24" fill="none" rx="0" ry="0" transform="translate(139.85 362.15)"></rect><path fill="#ffffff" d="M152.07 364.766q0-.6-.43-.99-.43-.4-1.11-.72-.69-.33-1.44-.66-.76-.34-1.44-.78-.69-.45-1.12-1.13-.43-.68-.43-1.67h2.11q0 .6.43 1 .43.39 1.12.71l1.45.66q.77.34 1.44.8.67.46 1.12 1.12.44.66.44 1.66h-1.92zm-2.04 3.48v-1.89q.89 0 1.47-.45.57-.44.57-1.14h2.14q0 1.01-.54 1.8-.54.8-1.48 1.24-.93.44-2.16.44m-1.82-9.43h-2.11q0-.98.49-1.76t1.38-1.23q.89-.44 1.97-.44v1.9q-.75 0-1.24.43t-.49 1.1m-2.47 5.86 2.01-.41q.12 1.06.77 1.57.65.52 1.51.52v1.89q-1.1 0-2.04-.45-.93-.46-1.52-1.27-.59-.82-.73-1.85m8.49-5.71-2.04.4q-.12-1.08-.75-1.58-.64-.5-1.5-.5v-1.9q1.13 0 2.04.46.91.45 1.51 1.26.6.8.74 1.86"></path><rect width="8.49" height="12.86" x="-4.25" y="-6.43" fill="none" rx="0" ry="0" transform="translate(150.49 362.32)"></rect><path fill="#ffffff" d="M159.25 367.886h-2.18v-13.24h2.18zm2.95-10.32h-6.53v-1.8h6.53zm-2.95-2.92h-2.18q0-1.9.96-2.97.96-1.07 2.64-1.07l.19 1.88q-.51 0-.87.26t-.55.74q-.19.48-.19 1.16m3.6-3.29-.86 1.53q-.27-.19-.54-.3-.28-.1-.59-.1l-.19-1.88q.57 0 1.14.17.56.17 1.04.58"></path><rect width="7.18" height="17.28" x="-3.59" y="-8.64" fill="none" rx="0" ry="0" transform="translate(159.76 359.75)"></rect><path fill="#ffffff" d="M172.86 363.596h-2.19v-3.53h2.19zm-6.75 0h-2.18v-3.53h2.18zm2.36-6.29h-.15v-1.9h.15zm0 10.94h-.15v-1.89h.15zm-2.36-8.16h-2.18q0-1.34.59-2.4.59-1.05 1.58-1.66 1-.62 2.27-.62v1.9q-1.06 0-1.66.72-.6.72-.6 2.06m6.75 0h-2.19q0-1.34-.58-2.06-.59-.72-1.67-.72v-1.9q1.27 0 2.27.62.99.61 1.58 1.66.59 1.06.59 2.4m-8.93 3.48h2.18q0 1.32.6 2.06.6.73 1.66.73v1.89q-1.27 0-2.27-.61-.99-.61-1.58-1.67-.59-1.05-.59-2.4m6.74 0h2.19q0 1.35-.59 2.4-.59 1.06-1.58 1.67-1 .61-2.27.61v-1.89q1.08 0 1.67-.73.58-.74.58-2.06"></path><rect width="8.93" height="12.84" x="-4.46" y="-6.42" fill="none" rx="0" ry="0" transform="translate(168.9 362.33)"></rect><path fill="#ffffff" d="M177.32 367.886h-2.18v-12.12h2.18zm0-8.11h-.98q0-1.22.41-2.19.4-.98 1.11-1.53.71-.55 1.57-.55l-.19 2.04q-.84 0-1.38.64-.54.63-.54 1.59m4.11-3.5-.75 1.82q-.29-.24-.68-.39-.4-.16-.76-.16l.19-2.04q.56 0 1.08.2.53.21.92.57"></path><rect width="6.29" height="12.38" x="-3.15" y="-6.19" fill="none" rx="0" ry="0" transform="translate(178.78 362.2)"></rect><path fill="#ffffff" d="M185.41 367.886h-2.18v-12.12h2.18zm6.26 0h-2.18v-8.25h2.18zm-6.26-8.2h-.98q0-1.23.46-2.2.47-.97 1.29-1.52.81-.56 1.82-.56l-.55 1.95q-.86 0-1.45.65-.59.64-.59 1.68m6.26-.05h-2.18q0-1.01-.58-1.65-.57-.63-1.46-.63l.55-1.95q1.06 0 1.89.56.82.55 1.3 1.5.48.94.48 2.17m6.24 8.25h-2.18v-8.25h2.18zm-6.24-8.2h-.98q0-1.23.47-2.2.47-.97 1.27-1.52.8-.56 1.81-.56l-.55 1.95q-.86 0-1.44.65-.58.64-.58 1.68m6.24-.05h-2.18q0-1.01-.56-1.65-.57-.63-1.48-.63l.55-1.95q1.06 0 1.89.56.82.55 1.3 1.5.48.94.48 2.17"></path><rect width="14.68" height="12.48" x="-7.34" y="-6.24" fill="none" rx="0" ry="0" transform="translate(191.07 362.15)"></rect><path fill="#ffffff" d="M210.08 362.056h-2.06l3.77-11.09h2.06zm0 5.83h-2.06v-5.83h2.06zm0-5.83h-2.06l-3.79-11.09h2.25z"></path><rect width="9.62" height="16.92" x="-4.81" y="-8.46" fill="none" rx="0" ry="0" transform="translate(209.54 359.93)"></rect><path fill="#ffffff" d="M224.34 363.596h-2.19v-3.53h2.19zm-6.75 0h-2.18v-3.53h2.18zm2.36-6.29h-.15v-1.9h.15zm0 10.94h-.15v-1.89h.15zm-2.36-8.16h-2.18q0-1.34.59-2.4.59-1.05 1.58-1.66 1-.62 2.27-.62v1.9q-1.06 0-1.66.72-.6.72-.6 2.06m6.75 0h-2.19q0-1.34-.58-2.06-.59-.72-1.67-.72v-1.9q1.27 0 2.27.62.99.61 1.58 1.66.59 1.06.59 2.4m-8.93 3.48h2.18q0 1.32.6 2.06.6.73 1.66.73v1.89q-1.27 0-2.27-.61-.99-.61-1.58-1.67-.59-1.05-.59-2.4m6.74 0h2.19q0 1.35-.59 2.4-.59 1.06-1.58 1.67-1 .61-2.27.61v-1.89q1.08 0 1.67-.73.58-.74.58-2.06"></path><rect width="8.93" height="12.84" x="-4.46" y="-6.42" fill="none" rx="0" ry="0" transform="translate(220.38 362.33)"></rect><path fill="#ffffff" d="M233 355.766h2.19v12.12H233zm-6.74 0h2.18v8.26h-2.18zm0 8.26h2.18q0 1.01.64 1.64.63.64 1.62.64l-.55 1.94q-1.13 0-2.01-.55-.87-.55-1.38-1.51-.5-.96-.5-2.16m6.74-.07h.96q0 1.22-.49 2.19-.49.98-1.37 1.54-.87.56-1.95.56l.55-1.94q1.01 0 1.65-.65.65-.65.65-1.7"></path><rect width="8.93" height="12.48" x="-4.46" y="-6.24" fill="none" rx="0" ry="0" transform="translate(231.22 362.5)"></rect><path fill="#ffffff" d="M240.25 367.886h-2.18v-12.12h2.18zm0-8.11h-.98q0-1.22.4-2.19.41-.98 1.12-1.53.71-.55 1.57-.55l-.19 2.04q-.84 0-1.38.64-.54.63-.54 1.59m4.1-3.5-.74 1.82q-.29-.24-.68-.39-.4-.16-.76-.16l.19-2.04q.55 0 1.08.2.53.21.91.57"></path><rect width="6.28" height="12.38" x="-3.14" y="-6.19" fill="none" rx="0" ry="0" transform="translate(241.71 362.2)"></rect><path fill="#ffffff" d="M254.53 352.866h-2.45v-1.9h2.45zm0 8.52h-2.45v-1.9h2.45zm4.73-4.49h-2.19v-1.44h2.19zm0-1.44h-2.19q0-1.25-.68-1.92-.68-.67-1.88-.67v-1.9q1.41 0 2.48.57 1.07.56 1.67 1.58.6 1.02.6 2.34m-2.19 1.42h2.19q0 1.34-.6 2.35t-1.67 1.58q-1.07.58-2.48.58v-1.9q1.2 0 1.88-.69.68-.7.68-1.92m-4.22 11.01h-2.18v-16.92h2.18z"></path><rect width="8.59" height="16.92" x="-4.29" y="-8.46" fill="none" rx="0" ry="0" transform="translate(255.47 359.93)"></rect><path fill="#ffffff" d="M270.06 363.406h-2.19v-7.95h2.19zm-4.73 4.48h-2.38v-1.89h2.38zm0-15.02h-2.38v-1.9h2.38zm0 0h-2.38v-1.9h2.38zm4.73 2.59h-2.19q0-1.25-.67-1.92-.67-.67-1.87-.67v-1.9q1.39 0 2.46.57 1.07.56 1.67 1.58.6 1.02.6 2.34m-2.19 7.92h2.19q0 1.35-.6 2.35-.6 1.01-1.67 1.59-1.07.57-2.46.57v-1.89q1.2 0 1.87-.69.67-.68.67-1.93m-4.27 4.51h-2.18v-16.92h2.18z"></path><rect width="8.64" height="16.92" x="-4.32" y="-8.46" fill="none" rx="0" ry="0" transform="translate(266.24 359.93)"></rect><path fill="#ffffff" d="M279.25 360.426h-4.85v-1.94h4.85zm-6.43 7.46v-16.92H275v16.92zm1.46-15.02v-1.9h6.17v1.9z"></path><rect width="7.63" height="16.92" x="-3.81" y="-8.46" fill="none" rx="0" ry="0" transform="translate(277.13 359.93)"></rect><path fill="#ffffff" d="M288.11 364.766q0-.6-.44-.99-.43-.4-1.11-.72-.69-.33-1.44-.66-.76-.34-1.44-.78-.69-.45-1.12-1.13-.43-.68-.43-1.67h2.11q0 .6.43 1 .44.39 1.12.71l1.45.66q.77.34 1.44.8.67.46 1.12 1.12.44.66.44 1.66h-1.92zm-2.04 3.48v-1.89q.88 0 1.46-.45.58-.44.58-1.14h2.13q0 1.01-.54 1.8-.54.8-1.47 1.24-.94.44-2.16.44m-1.83-9.43h-2.11q0-.98.49-1.76t1.38-1.23q.89-.44 1.97-.44v1.9q-.74 0-1.24.43-.49.43-.49 1.1m-2.47 5.86 2.02-.41q.12 1.06.76 1.57.65.52 1.52.52v1.89q-1.11 0-2.04-.45-.94-.46-1.53-1.27-.59-.82-.73-1.85m8.5-5.71-2.04.4q-.12-1.08-.76-1.58t-1.5-.5v-1.9q1.13 0 2.04.46.91.45 1.51 1.26.6.8.75 1.86"></path><rect width="8.5" height="12.86" x="-4.25" y="-6.43" fill="none" rx="0" ry="0" transform="translate(286.52 362.32)"></rect><path fill="#ffffff" d="M299.79 367.886h-2.18v-13.24h2.18zm2.96-10.32h-6.53v-1.8h6.53zm-2.96-2.92h-2.18q0-1.9.96-2.97.96-1.07 2.64-1.07l.19 1.88q-.5 0-.86.26t-.55.74q-.2.48-.2 1.16m3.6-3.29-.86 1.53q-.26-.19-.54-.3-.28-.1-.59-.1l-.19-1.88q.58 0 1.14.17.56.17 1.04.58"></path><rect width="7.17" height="17.28" x="-3.58" y="-8.64" fill="none" rx="0" ry="0" transform="translate(300.3 359.75)"></rect><path fill="#ffffff" d="M313.4 363.596h-2.18v-3.53h2.18zm-6.74 0h-2.19v-3.53h2.19zm2.35-6.29h-.14v-1.9h.14zm0 10.94h-.14v-1.89h.14zm-2.35-8.16h-2.19q0-1.34.59-2.4.59-1.05 1.59-1.66.99-.62 2.26-.62v1.9q-1.05 0-1.65.72-.6.72-.6 2.06m6.74 0h-2.18q0-1.34-.59-2.06t-1.67-.72v-1.9q1.27 0 2.27.62 1 .61 1.58 1.66.59 1.06.59 2.4m-8.93 3.48h2.19q0 1.32.6 2.06.6.73 1.65.73v1.89q-1.27 0-2.26-.61-1-.61-1.59-1.67-.59-1.05-.59-2.4m6.75 0h2.18q0 1.35-.59 2.4-.58 1.06-1.58 1.67-1 .61-2.27.61v-1.89q1.08 0 1.67-.73.59-.74.59-2.06"></path><rect width="8.93" height="12.84" x="-4.46" y="-6.42" fill="none" rx="0" ry="0" transform="translate(309.44 362.33)"></rect><path fill="#ffffff" d="M317.87 367.886h-2.19v-12.12h2.19zm0-8.11h-.99q0-1.22.41-2.19.41-.98 1.12-1.53.7-.55 1.57-.55l-.19 2.04q-.84 0-1.38.64-.54.63-.54 1.59m4.1-3.5-.74 1.82q-.29-.24-.69-.39-.39-.16-.75-.16l.19-2.04q.55 0 1.08.2.53.21.91.57"></path><rect width="6.29" height="12.38" x="-3.15" y="-6.19" fill="none" rx="0" ry="0" transform="translate(319.32 362.2)"></rect><path fill="#ffffff" d="M331.95 359.946v-1.78q1.2 0 1.88-.72.67-.72.67-2.01h2.18q0 1.29-.61 2.31t-1.69 1.61q-1.08.59-2.43.59m.24 7.94h-2.32v-1.89h2.32zm0-7.82h-2.32v-1.9h2.32zm4.73 3.34h-2.18v-.58h2.18zm0-.56h-2.18q0-1.32-.67-2.05-.68-.73-1.88-.73v-1.78q1.35 0 2.43.6t1.69 1.64q.61 1.03.61 2.32m-4.97-9.98h-2.08v-1.9h2.08zm4.73 2.59h-2.18q0-1.25-.67-1.92-.68-.67-1.88-.67v-1.9q1.4 0 2.46.57 1.07.56 1.67 1.58.6 1.02.6 2.34m-1.94 7.92h2.18q0 1.35-.6 2.35-.6 1.01-1.67 1.59-1.06.57-2.46.57v-1.89q1.2 0 1.88-.69.67-.68.67-1.93m-4.27 4.51h-2.19v-16.92h2.19z"></path><rect width="8.64" height="16.92" x="-4.32" y="-8.46" fill="none" rx="0" ry="0" transform="translate(333.1 359.93)"></rect><path fill="#ffffff" d="M347.72 362.486h-8.18v-1.56h8.18zm-4.34 5.79h-.12v-1.9h.12zm-2.35-4.68h-2.19v-3.53h2.19zm6.69-2.67h-2.18v-1.24h2.18zm0-1.24h-2.18q0-1.06-.64-1.73-.63-.67-1.64-.67v-1.88q1.29 0 2.29.56 1 .55 1.58 1.52.59.97.59 2.2m-2.09 4.6 2.04.41q-.14 1.03-.74 1.85-.6.82-1.51 1.27-.91.46-2.04.46v-1.9q.86 0 1.5-.51.63-.52.75-1.58m-4.6-4.2h-2.19q0-1.36.59-2.41.59-1.04 1.58-1.65 1-.62 2.27-.62v1.88q-1.05 0-1.65.73-.6.73-.6 2.07m-2.19 3.51h2.19q0 1.32.6 2.05.6.73 1.65.73v1.9q-1.27 0-2.27-.61-.99-.62-1.58-1.67-.59-1.06-.59-2.4"></path><rect width="8.88" height="12.87" x="-4.44" y="-6.43" fill="none" rx="0" ry="0" transform="translate(343.78 362.34)"></rect><path fill="#ffffff" d="M352.98 364.216h-2.19v-13.27l2.19.02zm3.02-6.65h-6.6v-1.8h6.6zm-5.21 6.63h2.19q0 .69.19 1.17t.55.74q.36.25.87.25l-.2 1.89q-1.68 0-2.64-1.06-.96-1.07-.96-2.99m4.92 1.75.87 1.56q-.48.36-1.05.55-.56.19-1.14.19l.2-1.89q.31 0 .58-.11.28-.11.54-.3"></path><rect width="7.18" height="17.3" x="-3.59" y="-8.65" fill="none" rx="0" ry="0" transform="translate(353.49 360.1)"></rect><path fill="#ffffff" d="M361.47 364.216h-2.18v-13.27l2.18.02zm3.03-6.65h-6.6v-1.8h6.6zm-5.21 6.63h2.18q0 .69.2 1.17.19.48.55.74.36.25.86.25l-.19 1.89q-1.68 0-2.64-1.06-.96-1.07-.96-2.99m4.92 1.75.86 1.56q-.48.36-1.04.55-.56.19-1.14.19l.19-1.89q.31 0 .59-.11.28-.11.54-.3"></path><rect width="7.17" height="17.3" x="-3.58" y="-8.65" fill="none" rx="0" ry="0" transform="translate(361.99 360.1)"></rect><path fill="#ffffff" d="M375.27 362.486h-8.18v-1.56h8.18zm-4.34 5.79h-.12v-1.9h.12zm-2.35-4.68h-2.19v-3.53h2.19zm6.69-2.67h-2.18v-1.24h2.18zm0-1.24h-2.18q0-1.06-.64-1.73-.63-.67-1.64-.67v-1.88q1.3 0 2.29.56 1 .55 1.59 1.52.58.97.58 2.2m-2.08 4.6 2.04.41q-.15 1.03-.75 1.85-.6.82-1.51 1.27-.91.46-2.04.46v-1.9q.86 0 1.5-.51.64-.52.76-1.58m-4.61-4.2h-2.19q0-1.36.59-2.41.59-1.04 1.59-1.65.99-.62 2.26-.62v1.88q-1.05 0-1.65.73-.6.73-.6 2.07m-2.19 3.51h2.19q0 1.32.6 2.05.6.73 1.65.73v1.9q-1.27 0-2.26-.61-1-.62-1.59-1.67-.59-1.06-.59-2.4"></path><rect width="8.88" height="12.87" x="-4.44" y="-6.43" fill="none" rx="0" ry="0" transform="translate(371.33 362.34)"></rect><path fill="#ffffff" d="M379.74 367.886h-2.19v-12.12h2.19zm0-8.11h-.99q0-1.22.41-2.19.41-.98 1.12-1.53.71-.55 1.57-.55l-.19 2.04q-.84 0-1.38.64-.54.63-.54 1.59m4.1-3.5-.74 1.82q-.29-.24-.69-.39-.39-.16-.75-.16l.19-2.04q.55 0 1.08.2.53.21.91.57"></path><rect width="6.29" height="12.38" x="-3.15" y="-6.19" fill="none" rx="0" ry="0" transform="translate(381.2 362.2)"></rect><path fill="#ffffff" d="M398.84 367.886h-2.23l-3.07-8.25h2.23zm-4.82-7.17h-2.45v-1.87h2.45zm0-7.85h-2.45v-1.9h2.45zm4.73 3.38h-2.19v-.81h2.19zm0-.79h-2.19q0-1.25-.68-1.92-.69-.67-1.89-.67v-1.9q1.42 0 2.49.57 1.07.56 1.67 1.58.6 1.02.6 2.34m-2.19.77h2.19q0 1.32-.6 2.34-.6 1.02-1.67 1.58-1.07.57-2.49.57v-1.87q1.2 0 1.89-.7.68-.7.68-1.92m-4.22 11.66h-2.19v-16.92h2.19z"></path><rect width="8.69" height="16.92" x="-4.34" y="-8.46" fill="none" rx="0" ry="0" transform="translate(395 359.93)"></rect><path fill="#ffffff" d="M409.52 362.486h-8.18v-1.56h8.18zm-4.34 5.79h-.12v-1.9h.12zm-2.35-4.68h-2.19v-3.53h2.19zm6.69-2.67h-2.18v-1.24h2.18zm0-1.24h-2.18q0-1.06-.64-1.73-.63-.67-1.64-.67v-1.88q1.29 0 2.29.56 1 .55 1.58 1.52.59.97.59 2.2m-2.09 4.6 2.04.41q-.14 1.03-.74 1.85-.6.82-1.51 1.27-.91.46-2.04.46v-1.9q.86 0 1.5-.51.63-.52.75-1.58m-4.6-4.2h-2.19q0-1.36.59-2.41.59-1.04 1.58-1.65 1-.62 2.27-.62v1.88q-1.05 0-1.65.73-.6.73-.6 2.07m-2.19 3.51h2.19q0 1.32.6 2.05.6.73 1.65.73v1.9q-1.27 0-2.27-.61-.99-.62-1.58-1.67-.59-1.06-.59-2.4"></path><rect width="8.88" height="12.87" x="-4.44" y="-6.43" fill="none" rx="0" ry="0" transform="translate(405.58 362.34)"></rect><path fill="#ffffff" d="M420.47 367.886h-2.19v-8.25h2.19zm-5.12.36.17-1.8q.87 0 1.48-.43t.95-1.27q.33-.84.33-1.99l1.08-.05q0 1.63-.53 2.88-.52 1.25-1.42 1.96-.9.7-2.06.7m.17-1.8-.17 1.8q-1.08 0-1.96-.5-.89-.5-1.42-1.38-.53-.88-.53-1.96l2.07-.07q0 .91.61 1.51t1.4.6m-2.01-2.11-2.07.07q0-1.12.57-1.98.56-.85 1.52-1.35.96-.51 2.18-.51l.12 1.68q-1 0-1.66.59-.66.59-.66 1.5m5.9-2.09h-3.58l-.12-1.68h3.7zm-.05.46-1.08.05v-3.1h1.08zm1.11-3.02h-2.19q0-1.06-.63-1.73-.64-.67-1.65-.67v-1.88q1.3 0 2.29.56 1 .55 1.59 1.52.59.97.59 2.2m-6.72-.29-2.02-.41q.14-1.08.73-1.87t1.51-1.25q.93-.46 2.06-.46v1.88q-.89 0-1.53.51-.63.52-.75 1.6"></path><rect width="9.03" height="12.84" x="-4.51" y="-6.42" fill="none" rx="0" ry="0" transform="translate(416.45 362.33)"></rect><path fill="#ffffff" d="M431.55 350.966v4.83h-2.18v-4.83zm0 16.92h-2.18v-12.12h2.18zm-6.74-3.86h-2.18v-4.39h2.18zm0-4.39h-2.18q0-1.2.5-2.16.5-.96 1.38-1.51.88-.56 2-.56l.56 1.95q-.99 0-1.62.63-.64.64-.64 1.65m5.52.05h-.96q0-1.04-.65-1.68-.65-.65-1.65-.65l-.56-1.95q1.08 0 1.96.56.88.55 1.37 1.52.49.97.49 2.2m-7.7 4.34h2.18q0 1.01.64 1.64.63.64 1.62.64l-.56 1.94q-1.12 0-2-.55-.88-.55-1.38-1.51-.5-.96-.5-2.16m6.74-.07h.96q0 1.22-.49 2.19-.49.98-1.37 1.54-.88.56-1.96.56l.56-1.94q1 0 1.65-.65.65-.65.65-1.7"></path><rect width="8.92" height="17.28" x="-4.46" y="-8.64" fill="none" rx="0" ry="0" transform="translate(427.59 360.1)"></rect><path fill="#ffffff" d="M436.86 367.886h-2.19v-12.12h2.19zm-1.11-13.72q-.6 0-1-.41-.41-.41-.41-1.01 0-.6.41-1.02.4-.42 1-.42t1.02.42q.42.42.42 1.02 0 .6-.42 1.01-.42.41-1.02.41"></path><rect width="2.85" height="16.58" x="-1.43" y="-8.29" fill="none" rx="0" ry="0" transform="translate(436.26 360.1)"></rect><path fill="#ffffff" d="M442.16 367.886h-2.18v-12.12h2.18zm6.75 0h-2.19v-8.25h2.19zm0-8.25h-2.19q0-1.01-.62-1.65-.63-.63-1.61-.63l.55-1.95q1.11 0 1.98.56.88.55 1.38 1.51.51.96.51 2.16m-6.75.05h-.96q0-1.23.51-2.2.5-.97 1.36-1.52.87-.56 1.97-.56l-.55 1.95q-1.03 0-1.68.65-.65.64-.65 1.68"></path><rect width="8.93" height="12.48" x="-4.46" y="-6.24" fill="none" rx="0" ry="0" transform="translate(444.94 362.15)"></rect><path fill="#ffffff" d="M459.99 368.326h-2.18v-12.56h2.18zm-6.74-4.61h-2.18v-4.08h2.18zm0-4.08h-2.18q0-1.2.5-2.16.5-.96 1.38-1.51.88-.56 2-.56l.56 1.95q-.99 0-1.62.63-.64.64-.64 1.65m5.52.05h-.96q0-1.04-.65-1.68-.65-.65-1.65-.65l-.56-1.95q1.08 0 1.96.56.88.55 1.37 1.52.49.97.49 2.2m-7.7 4.03h2.18q0 1.01.64 1.64.63.64 1.62.64l-.56 1.94q-1.12 0-2-.55-.88-.55-1.38-1.51-.5-.96-.5-2.16m6.74-.07h.96q0 1.22-.49 2.19t-1.37 1.54q-.88.56-1.96.56l.56-1.94q1 0 1.65-.65.65-.65.65-1.7m0 4.6h2.18q0 1.23-.57 2.2-.58.97-1.59 1.54-1 .56-2.28.56v-1.9q.99 0 1.62-.68.64-.68.64-1.72m-6.55.72 2.01-.4q.12 1.05.77 1.57.65.51 1.51.51v1.9q-1.1 0-2.04-.46-.93-.45-1.52-1.27-.59-.81-.73-1.85"></path><rect width="8.92" height="17.14" x="-4.46" y="-8.57" fill="none" rx="0" ry="0" transform="translate(456.03 364.48)"></rect><circle r="71.43" stroke="#ffffff" stroke-width="6" paint-order="stroke" transform="translate(278.49 59.27)scale(.7499)"></circle><path fill="#ffffff" d="M278.642 49.27c6.897 0 12.487-5.59 12.487-12.487s-5.59-12.487-12.487-12.487-12.487 5.59-12.487 12.487 5.59 12.487 12.487 12.487m34.424 37.165c-.076.091 0-.007 0 0m.196-6.413-16.03-26.016c-1.23-2.002-3.127-2.651-5.68-2.659l-.09-.015h-25.586l-.083.015c-2.553 0-4.457.657-5.688 2.66l-16.022 26.015a5.628 5.628 0 0 0 7.199 8.03l8.974-4.268v10.84h36.833v-10.84l8.974 4.268a5.666 5.666 0 0 0 6.837-1.617 5.666 5.666 0 0 0 .355-6.42m-16.173-8.688-.121-.052a5.624 5.624 0 0 0-4.827 10.16l1.322.627-14.655 5.03-.136.053-.136-.052-14.662-5.031 1.322-.627a5.624 5.624 0 0 0-4.827-10.16l-.114.052V58.274l18.417 6.33 18.417-6.33z"></path></svg></svg>